<svg fill="none" xmlns="http://www.w3.org/2000/svg" viewBox="0 0 322 318">
  <g id="HeroLogoLight">
    <g id="LogoLight">
      <g id="LogoLight_2">
        <g id="Wings" stroke-width="3">
          <path id="Ellipse 1" d="M263.494 59.5c0 52.398-50.254 94.875-112.247 94.875C89.2547 154.375 39 111.898 39 59.5" stroke="#589893"/>
          <path id="Ellipse 1_2" d="M39.5118 171.621c.4633-52.396 51.0916-94.4044 113.0812-93.8291 61.99.5756 111.867 43.5171 111.404 95.9131" stroke="#589893"/>
          <path id="Ellipse 1_3" d="M243.851 232c-51.144 0-92.604-51.487-92.604-115 0-63.5128 41.46-115 92.604-115" stroke="#82B2AE"/>
          <path id="Ellipse 1_4" d="M59.0013 2c51.1437 0 92.6037 51.4872 92.6037 115 0 63.513-41.46 115-92.6037 115" stroke="#ABCBC9"/>
        </g>
        <g id="Body" fill="#D5E5E4">
          <path id="Ellipse 2" d="M95.1247 59.868c.0471 7.5509 1.5456 15.0184 4.4096 21.9759 2.8637 6.9575 7.0377 13.269 12.2827 18.5741 5.244 5.305 11.458 9.5 18.285 12.345 6.827 2.845 14.134 4.284 21.504 4.236 7.37-.049 14.659-1.584 21.45-4.518 6.791-2.934 12.951-7.21 18.13-12.5836 5.178-5.3733 9.272-11.7392 12.049-18.7337 2.777-6.9946 4.182-14.4808 4.135-22.0317l-39.988.2622c.014 2.1709-.39 4.3231-1.188 6.3342-.799 2.0107-1.976 3.841-3.465 5.386-1.488 1.5447-3.259 2.7741-5.212 3.6176-1.952.8435-4.048 1.2851-6.167 1.2989-2.119.0138-4.219-.3999-6.182-1.2178-1.963-.818-3.749-2.024-5.257-3.5492-1.508-1.5252-2.708-3.3396-3.531-5.34-.824-2.0005-1.254-4.1472-1.268-6.3181l-39.9873.2622Z"/>
          <path id="Ellipse 2_2" d="M207.877 172.816c.02-7.551-1.412-15.032-4.214-22.016-2.803-6.984-6.92-13.334-12.118-18.687-5.198-5.354-11.374-9.606-18.175-12.514-6.802-2.909-14.096-4.416-21.467-4.436-7.37-.02-14.672 1.447-21.488 4.319-6.817 2.871-13.015 7.089-18.241 12.414-5.225 5.326-9.375 11.653-12.214 18.622-2.8384 6.968-4.3094 14.441-4.3291 21.992l39.9881.109c.005-2.171.428-4.32 1.244-6.323.817-2.003 2.01-3.822 3.512-5.353 1.502-1.531 3.284-2.744 5.244-3.57 1.96-.825 4.059-1.247 6.178-1.241 2.119.006 4.216.439 6.172 1.275 1.955.836 3.731 2.058 5.225 3.598 1.494 1.539 2.678 3.365 3.484 5.372.806 2.008 1.217 4.159 1.212 6.33l39.987.109Z"/>
          <path id="Ellipse 2_3" d="M243.492 59.5011c-7.37.0483-14.659 1.5835-21.45 4.5178-6.791 2.9342-12.951 7.2102-18.13 12.5836-5.178 5.3733-9.272 11.7391-12.049 18.7337-2.777 6.9948-4.182 14.4808-4.134 22.0318.047 7.551 1.545 15.018 4.409 21.976 2.864 6.957 7.038 13.269 12.283 18.574 5.244 5.305 11.458 9.5 18.285 12.345 6.827 2.845 14.134 4.284 21.504 4.236l-.256-40.968c-2.119.014-4.219-.4-6.182-1.218s-3.749-2.024-5.257-3.549c-1.508-1.525-2.708-3.34-3.531-5.34-.824-2.001-1.255-4.147-1.268-6.318-.014-2.171.39-4.323 1.188-6.334.799-2.011 1.976-3.841 3.465-5.386 1.488-1.545 3.259-2.775 5.212-3.618 1.952-.844 4.048-1.285 6.167-1.299l-.256-40.9679Z"/>
          <path id="Ellipse 2_4" d="M59.3605 174.499c7.3701-.049 14.6589-1.584 21.4499-4.518 6.7909-2.934 12.9513-7.21 18.1296-12.584 5.178-5.373 9.272-11.739 12.049-18.733 2.777-6.995 4.182-14.481 4.135-22.032-.047-7.551-1.546-15.018-4.41-21.976-2.864-6.9575-7.037-13.269-12.2822-18.5742-5.2448-5.3049-11.4582-9.4998-18.2854-12.3447-6.8271-2.8451-14.1341-4.2843-21.5043-4.236l.2559 40.9679c2.119-.014 4.2197.4 6.1826 1.218 1.9627.818 3.7491 2.024 5.2571 3.549 1.5078 1.525 2.7077 3.34 3.531 5.34.8234 2 1.2544 4.147 1.2679 6.318.0134 2.171-.3904 4.323-1.1887 6.334-.7984 2.011-1.9756 3.841-3.4643 5.386-1.4886 1.545-3.2596 2.774-5.2122 3.618-1.9525.844-4.0479 1.285-6.1668 1.299l.2559 40.968Z"/>
        </g>
      </g>
    </g>
    <g id="Nav-logoLight" filter="url(#filter0_d_209_2950)">
      <g id="Merriweather Sans: Bold">
        <path id="Merriweather Sans: Bold_2" d="M12.076 298.312c-1.339 0-2.6065-.097-3.8025-.292-1.196-.196-2.2295-.43-3.1005-.703-.871-.273-1.4885-.52-1.8525-.741l.9165-4.836c.481.286 1.1115.572 1.8915.858.793.273 1.664.507 2.613.702.949.182 1.9045.273 2.8665.273 1.547 0 2.6975-.24 3.4515-.721s1.131-1.255 1.131-2.321c0-.754-.208-1.384-.624-1.891-.416-.52-1.0725-1.027-1.9695-1.521-.884-.494-2.0345-1.079-3.4515-1.755-1.209-.585-2.3465-1.281-3.4125-2.087-1.066-.806-1.9305-1.768-2.5935-2.886s-.9945-2.424-.9945-3.919c0-1.352.26-2.516.78-3.491.533-.988 1.261-1.794 2.184-2.418.923-.637 1.989-1.105 3.198-1.404 1.222-.299 2.5285-.448 3.9195-.448 2.002 0 3.6465.188 4.9335.565 1.287.377 2.184.728 2.691 1.053l-1.0335 4.641c-.611-.442-1.456-.838-2.535-1.189-1.079-.364-2.314-.546-3.705-.546-.923 0-1.729.11-2.418.331-.676.221-1.2025.546-1.5795.975-.377.416-.5655.93-.5655 1.541 0 .728.1755 1.352.5265 1.872.364.507.936 1.001 1.716 1.482.78.468 1.794 1.007 3.042 1.618 1.131.533 2.1775 1.092 3.1395 1.677.962.572 1.807 1.203 2.535 1.892.728.689 1.2935 1.475 1.6965 2.36.403.883.6045 1.897.6045 3.041 0 1.742-.4095 3.237-1.2285 4.485-.819 1.235-1.9955 2.178-3.5295 2.828-1.521.65-3.3345.975-5.4405.975Zm13.161-10.94c0-2.132.39-4.056 1.17-5.772.78-1.716 1.963-3.074 3.549-4.075 1.599-1.014 3.627-1.521 6.084-1.521 1.417 0 2.639.117 3.666.351 1.04.234 1.7355.474 2.0865.721l-.741 4.544c-.481-.299-1.0855-.54-1.8135-.722-.715-.182-1.6055-.273-2.6715-.273-.845 0-1.677.195-2.496.585-.806.39-1.482 1.034-2.028 1.931-.533.897-.819 2.099-.858 3.607-.039 1.625.1755 2.958.6435 3.998.481 1.027 1.131 1.787 1.95 2.281.832.481 1.755.722 2.769.722.988 0 1.9045-.104 2.7495-.312.845-.208 1.5015-.429 1.9695-.663l.8775 3.646c-.624.625-1.5665 1.099-2.8275 1.424-1.248.312-2.5675.468-3.9585.468-2.249 0-4.121-.475-5.616-1.424-1.495-.962-2.6195-2.268-3.3735-3.919-.754-1.651-1.131-3.517-1.131-5.597Zm26.5812 10.94c-1.378 0-2.587-.279-3.627-.839-1.04-.559-1.8525-1.339-2.4375-2.339-.572-1.002-.858-2.165-.858-3.491s.3575-2.464 1.0725-3.413c.728-.949 1.7095-1.69 2.9445-2.223.845-.351 1.768-.624 2.769-.819 1.014-.195 2.0215-.331 3.0225-.409 1.014-.078 1.9565-.117 2.8275-.117l.9945 1.228-.9945 1.911c-.468 0-.9945.033-1.5795.098-.585.065-1.1505.162-1.6965.292-.533.117-.9815.254-1.3455.41-.507.234-.962.546-1.365.936-.39.39-.585.988-.585 1.794 0 1.053.2925 1.833.8775 2.34.585.494 1.339.741 2.262.741.481 0 .9555-.065 1.4235-.195.481-.13.9035-.28 1.2675-.449.364-.182.611-.351.741-.507l1.0335 1.229-.7215 1.677c-.585.52-1.391 1.007-2.418 1.462-1.014.456-2.2165.683-3.6075.683Zm11.661-.312h-5.6355v-3.237h-.312v-11.7c0-1.105-.2925-1.827-.8775-2.165-.585-.351-1.4235-.526-2.5155-.526-.819 0-1.677.071-2.574.214-.884.143-1.7225.332-2.5155.566-.793.234-1.456.487-1.989.76l-1.287-3.744c.442-.26 1.131-.565 2.067-.916.936-.351 2.0085-.657 3.2175-.917 1.209-.273 2.4245-.409 3.6465-.409 2.002 0 3.6465.234 4.9335.702 1.3.468 2.262 1.261 2.886 2.379.637 1.118.9555 2.665.9555 4.641V298Zm5.8031 0v-31.688h5.967V298h-5.967Zm21.0655.312c-3.341 0-5.902-.995-7.683-2.984-1.781-1.989-2.6715-4.738-2.6715-8.248 0-2.106.403-3.991 1.209-5.655.819-1.664 2.002-2.977 3.549-3.939 1.547-.975 3.4385-1.469 5.6745-1.482 1.131-.013 2.21.13 3.237.429 1.027.299 1.9435.786 2.7495 1.462.806.663 1.4495 1.547 1.9305 2.652.494 1.092.7475 2.431.7605 4.017 0 .793-.013 1.528-.039 2.204-.026.676-.0845 1.254-.1755 1.735H83.1913l.39-3.217h9.984c.065-1.053.0065-1.976-.1755-2.769-.169-.806-.507-1.43-1.014-1.872-.507-.455-1.222-.683-2.145-.683-.897 0-1.6835.247-2.3595.741-.663.494-1.1765 1.346-1.5405 2.555-.351 1.196-.5005 2.847-.4485 4.953.052 1.417.325 2.554.819 3.412.507.845 1.1895 1.456 2.0475 1.833.871.364 1.8785.546 3.0225.546.624 0 1.3065-.052 2.0475-.156.741-.104 1.443-.24 2.106-.409.663-.182 1.17-.364 1.521-.546l.9945 3.237c-.481.39-1.144.754-1.989 1.092-.832.325-1.781.585-2.847.78-1.053.208-2.1385.312-3.2565.312Zm12.3082-1.697.663-4.192c.208.169.631.39 1.268.663s1.397.526 2.281.76c.884.221 1.794.332 2.73.332 1.183.013 2.054-.143 2.613-.468.559-.338.839-.839.839-1.502 0-.455-.189-.851-.566-1.189-.364-.338-.864-.65-1.501-.936-.637-.299-1.346-.605-2.126-.917-1.404-.559-2.567-1.17-3.49-1.833-.91-.663-1.593-1.417-2.048-2.262-.442-.858-.656-1.859-.643-3.003.013-1.352.403-2.476 1.17-3.373.78-.897 1.813-1.567 3.1-2.009 1.3-.455 2.737-.682 4.31-.682 1.599 0 2.957.149 4.075.448 1.131.286 1.905.553 2.321.8l-.644 4.27c-.247-.208-.637-.429-1.17-.663-.533-.234-1.137-.422-1.813-.565-.663-.156-1.339-.234-2.028-.234-1.261 0-2.184.156-2.769.468-.572.299-.858.734-.858 1.306-.013.741.273 1.294.858 1.658.598.351 1.423.747 2.476 1.189 1.56.637 2.867 1.274 3.92 1.911 1.066.624 1.865 1.346 2.398 2.165.546.806.819 1.794.819 2.964 0 2.158-.773 3.796-2.32 4.914-1.547 1.118-3.634 1.677-6.26 1.677-1.105 0-2.171-.091-3.198-.273-1.014-.169-1.911-.384-2.691-.644-.767-.26-1.339-.52-1.716-.78Z" fill="#EBF3F2"/>
      </g>
      <path id="Merriweather Sans: Bold_3" d="M121.432 298v-28.977h16.848v3.51h-12.246v8.814h9.087v3.471h-9.087v9.594h13.611V298h-18.213Zm22.964 0v-21.684h4.036l.02 2.301c.533-.364 1.196-.748 1.989-1.151.806-.403 1.677-.747 2.613-1.033.936-.286 1.872-.442 2.808-.468 1.56-.052 2.814.188 3.763.721.949.533 1.638 1.424 2.067 2.672.442 1.248.663 2.931.663 5.05V298h-4.485v-13.319c0-1.183-.104-2.145-.312-2.886-.195-.754-.565-1.3-1.111-1.638-.546-.338-1.352-.481-2.418-.429-.676.013-1.495.182-2.457.507-.949.312-1.846.787-2.691 1.424V298h-4.485Zm17.725-16.322-.955-2.847c.507-.429 1.176-.858 2.008-1.287.845-.429 1.768-.793 2.769-1.092 1.014-.312 2.035-.474 3.062-.487 1.547-.026 2.808.221 3.783.741.975.52 1.69 1.404 2.145 2.652.468 1.235.702 2.912.702 5.031V298h-4.505v-13.319c0-1.183-.097-2.145-.292-2.886-.182-.754-.546-1.3-1.092-1.638-.533-.338-1.339-.481-2.418-.429-.754.013-1.612.202-2.574.566-.962.351-1.84.812-2.633 1.384Zm19.861 25.955v-31.356h4.095v2.652l.39.468v16.809l-.039.897.039 3.549v6.981h-4.485Zm8.015-9.321c-1.339 0-2.457-.169-3.354-.507-.897-.338-1.476-.611-1.736-.819l1.56-2.886c.416.351.936.604 1.56.76.637.143 1.398.215 2.282.215 1.118 0 2.125-.312 3.022-.936.897-.637 1.606-1.56 2.126-2.769.533-1.222.812-2.711.838-4.466.026-2.6-.429-4.485-1.365-5.655-.923-1.183-2.216-1.774-3.88-1.774-1.014 0-1.918.195-2.711.585-.78.377-1.404.747-1.872 1.111l-.702-2.223c.299-.312.709-.702 1.229-1.17.52-.468 1.209-.877 2.067-1.228.858-.364 1.937-.546 3.237-.546 1.534 0 2.951.377 4.251 1.131 1.313.741 2.366 1.878 3.159 3.412.793 1.521 1.189 3.452 1.189 5.792 0 2.353-.455 4.433-1.365 6.24-.897 1.794-2.164 3.198-3.802 4.212-1.625 1.014-3.536 1.521-5.733 1.521Zm24.192 0c-1.768 0-3.27-.312-4.505-.936-1.235-.624-2.236-1.476-3.003-2.555-.767-1.079-1.326-2.314-1.677-3.705-.338-1.404-.5-2.879-.487-4.426.039-2.327.5-4.284 1.384-5.87.884-1.586 2.08-2.782 3.588-3.588 1.508-.819 3.205-1.228 5.09-1.228 2.366 0 4.257.539 5.674 1.618 1.43 1.066 2.457 2.483 3.081 4.251.637 1.755.943 3.66.917 5.714-.039 2.327-.501 4.29-1.385 5.889-.871 1.586-2.06 2.788-3.568 3.607-1.495.819-3.198 1.229-5.109 1.229Zm.117-3.178c1.781.025 3.12-.644 4.017-2.009.91-1.378 1.365-3.283 1.365-5.714 0-1.508-.182-2.873-.546-4.095-.364-1.235-.936-2.223-1.716-2.964-.767-.741-1.755-1.118-2.964-1.131-1.768-.039-3.101.598-3.998 1.911-.897 1.313-1.345 3.185-1.345 5.616 0 1.508.182 2.893.546 4.154.364 1.261.929 2.275 1.696 3.042.767.767 1.749 1.163 2.945 1.19Zm18.959-13.085-.273-2.964c.195-.403.604-.845 1.228-1.326.624-.494 1.359-.917 2.204-1.268.858-.351 1.729-.526 2.613-.526.494 0 .916.019 1.267.058.364.039.631.111.8.215v4.212c-.195-.104-.494-.215-.897-.332-.39-.117-1.027-.175-1.911-.175-.806 0-1.534.117-2.184.351-.637.221-1.196.494-1.677.819-.481.325-.871.637-1.17.936ZM229.014 298v-21.684h3.822l.312 2.769.351 1.638V298h-4.485Zm16.275 0v-21.684h4.485V298h-4.485Zm1.989-25.526c-.754 0-1.417-.24-1.989-.721-.559-.481-.838-1.138-.838-1.97 0-.572.156-1.085.468-1.54.325-.468.734-.839 1.228-1.112.494-.286 1.008-.429 1.541-.429.923 0 1.618.26 2.086.78.468.52.702 1.157.702 1.911 0 .897-.325 1.638-.975 2.223-.637.572-1.378.858-2.223.858Zm15.441 25.838c-1.417 0-2.561-.221-3.432-.663-.871-.442-1.534-1.073-1.989-1.892-.455-.832-.767-1.82-.936-2.964-.156-1.144-.234-2.411-.234-3.802v-12.714h4.485v12.675c0 1.716.13 2.977.39 3.783.273.806.689 1.326 1.248 1.56.572.234 1.313.351 2.223.351.533 0 1.099-.078 1.697-.234.611-.169 1.183-.364 1.716-.585.533-.234.955-.455 1.267-.663v-16.887h4.485v22.035h-2.067c-.598 0-1.072-.091-1.423-.273-.351-.169-.527-.611-.527-1.326v-1.521l.078.858c-.585.39-1.274.76-2.067 1.111-.78.338-1.599.618-2.457.839-.858.208-1.677.312-2.457.312Zm17.644-.312v-21.684h4.036l.02 2.301c.533-.364 1.196-.748 1.989-1.151.806-.403 1.677-.747 2.613-1.033.936-.286 1.872-.442 2.808-.468 1.56-.052 2.814.188 3.763.721.949.533 1.638 1.424 2.067 2.672.442 1.248.663 2.931.663 5.05V298h-4.485v-13.319c0-1.183-.104-2.145-.312-2.886-.195-.754-.565-1.3-1.111-1.638-.546-.338-1.352-.481-2.418-.429-.676.013-1.495.182-2.457.507-.949.312-1.846.787-2.691 1.424V298h-4.485Zm17.725-16.322-.955-2.847c.507-.429 1.176-.858 2.008-1.287.845-.429 1.768-.793 2.769-1.092 1.014-.312 2.035-.474 3.062-.487 1.547-.026 2.808.221 3.783.741.975.52 1.69 1.404 2.145 2.652.468 1.235.702 2.912.702 5.031V298h-4.505v-13.319c0-1.183-.097-2.145-.292-2.886-.182-.754-.546-1.3-1.092-1.638-.533-.338-1.339-.481-2.418-.429-.754.013-1.612.202-2.574.566-.962.351-1.84.812-2.633 1.384Z" fill="#82B2AE"/>
    </g>
  </g>
  <defs>
    <filter id="filter0_d_209_2950" x="0" y="260" width="329" height="66" filterUnits="userSpaceOnUse" color-interpolation-filters="sRGB">
      <feFlood flood-opacity="0" result="BackgroundImageFix"/>
      <feColorMatrix in="SourceAlpha" values="0 0 0 0 0 0 0 0 0 0 0 0 0 0 0 0 0 0 127 0" result="hardAlpha"/>
      <feOffset dx="3" dy="6"/>
      <feGaussianBlur stdDeviation="2"/>
      <feComposite in2="hardAlpha" operator="out"/>
      <feColorMatrix values="0 0 0 0 0 0 0 0 0 0 0 0 0 0 0 0 0 0 0.25 0"/>
      <feBlend in2="BackgroundImageFix" result="effect1_dropShadow_209_2950"/>
      <feBlend in="SourceGraphic" in2="effect1_dropShadow_209_2950" result="shape"/>
    </filter>
  </defs>
</svg>
