<svg fill="none" xmlns="http://www.w3.org/2000/svg" viewBox="0 0 75 76">
  <g id="LogoLight">
    <g id="LogoLight_2">
      <g id="Wings" stroke-width="3">
        <path id="Ellipse 1" d="M72.8404 20c0 16.4029-15.8581 29.7-35.4202 29.7C17.8582 49.7 2 36.4029 2 20" stroke="#589893"/>
        <path id="Ellipse 1_2" d="M2.16152 55.0987C2.30771 38.6966 18.2837 25.5461 37.845 25.7262c19.5612.1801 35.3002 13.6227 35.154 30.0249" stroke="#589893"/>
        <path id="Ellipse 1_3" d="M66.6419 74c-16.1387 0-29.2217-16.1177-29.2217-36S50.5032 2 66.6419 2" stroke="#82B2AE"/>
        <path id="Ellipse 1_4" d="M8.31152 2C24.4502 2 37.5332 18.1177 37.5332 38S24.4502 74 8.31152 74" stroke="#ABCBC9"/>
      </g>
      <g id="Body" fill="#D5E5E4">
        <path id="Ellipse 2" d="M19.7104 20.1152c.0149 2.3638.4878 4.7014 1.3915 6.8794.9038 2.178 2.2208 4.1538 3.8758 5.8146 1.655 1.6606 3.6157 2.9738 5.77 3.8644 2.1544.8905 4.4602 1.3412 6.7858 1.326 2.3257-.0151 4.6257-.4957 6.7687-1.4142 2.1429-.9186 4.0868-2.2571 5.7209-3.9392 1.6339-1.6821 2.9259-3.6749 3.8021-5.8645.8763-2.1896 1.3196-4.5331 1.3047-6.8969l-12.6181.0821c.0042.6796-.1232 1.3533-.3751 1.9829-.252.6294-.6234 1.2024-1.0932 1.686-.4698.4836-1.0286.8684-1.6447 1.1325-.6162.264-1.2774.4023-1.946.4066-.6687.0043-1.3316-.1252-1.951-.3812-.6193-.2561-1.183-.6336-1.6588-1.1111-.4759-.4774-.8545-1.0454-1.1143-1.6716-.2598-.6263-.3957-1.2983-.4001-1.9779l-12.6182.0821Z"/>
        <path id="Ellipse 2_2" d="M55.2902 55.4728c.0062-2.3638-.4457-4.7057-1.33-6.8919-.8843-2.1862-2.1837-4.1741-3.8238-5.85-1.6401-1.6758-3.589-3.007-5.7353-3.9174-2.1463-.9104-4.4481-1.3822-6.7738-1.3885-2.3257-.0063-4.6298.453-6.7809 1.3519-2.1511.8987-4.1069 2.2193-5.7558 3.8863-1.6489 1.667-2.9586 3.6478-3.8543 5.8293-.8957 2.1814-1.3599 4.5208-1.3661 6.8845l12.6184.0341c.0017-.6796.1353-1.3521.3928-1.9792.2575-.6273.634-1.1967 1.1081-1.6759.474-.4793 1.0363-.859 1.6547-1.1174.6185-.2584 1.2809-.3905 1.9496-.3886.6686.0018 1.3303.1374 1.9475.3991.617.2618 1.1773.6444 1.6489 1.1263.4715.4819.845 1.0534 1.0993 1.6818.2542.6286.3841 1.3019.3824 1.9815l12.6183.0341Z"/>
        <path id="Ellipse 2_3" d="M66.5285 20.0004c-2.3257.0151-4.6257.4957-6.7686 1.4142-2.1429.9186-4.0869 2.2571-5.7209 3.9392-1.6339 1.6821-2.926 3.6749-3.8022 5.8645-.8763 2.1896-1.3196 4.5331-1.3047 6.8969.0149 2.3638.4878 4.7014 1.3915 6.8794.9038 2.178 2.2207 4.1538 3.8758 5.8146 1.655 1.6606 3.6157 2.9738 5.77 3.8644 2.1543.8906 4.4601 1.3412 6.7858 1.326l-.0807-12.8247c-.6687.0043-1.3316-.1252-1.951-.3812-.6193-.2561-1.183-.6336-1.6589-1.1111-.4758-.4774-.8544-1.0454-1.1142-1.6716-.2598-.6263-.3958-1.2983-.4001-1.9779-.0042-.6796.1232-1.3533.3751-1.9829.2519-.6294.6234-1.2024 1.0932-1.6859.4697-.4837 1.0286-.8685 1.6447-1.1326.6161-.2641 1.2773-.4022 1.946-.4066l-.0808-12.8247Z"/>
        <path id="Ellipse 2_4" d="M8.42487 55.9996c2.32573-.0151 4.62573-.4957 6.76863-1.4142 2.1429-.9186 4.0869-2.2571 5.7209-3.9392 1.6339-1.6821 2.926-3.6749 3.8022-5.8645.8762-2.1896 1.3196-4.5332 1.3047-6.8969-.0149-2.3638-.4878-4.7014-1.3915-6.8794-.9038-2.178-2.2208-4.1538-3.8758-5.8146-1.655-1.6606-3.6157-2.9738-5.77-3.8644-2.1544-.8906-4.4601-1.3412-6.78582-1.326l.08076 12.8247c.66864-.0043 1.33153.1252 1.95096.3812.6193.2561 1.183.6336 1.6589 1.1111.4758.4774.8544 1.0454 1.1142 1.6716.2598.6262.3958 1.2983.4001 1.9779.0042.6796-.1232 1.3533-.3751 1.9829-.2519.6294-.6234 1.2024-1.0932 1.6859-.4697.4837-1.0286.8685-1.6447 1.1326-.61614.2641-1.27734.4022-1.94599.4066l.08076 12.8247Z"/>
      </g>
    </g>
  </g>
</svg>
