<svg fill="none" xmlns="http://www.w3.org/2000/svg" viewBox="0 0 403 92">
  <g id="Nav-logo" filter="url(#filter0_d_34_379)">
    <g id="Merriweather Sans: Bold">
      <path id="Merriweather Sans: Bold_2" d="M14.076 52.312c-1.339 0-2.6065-.0975-3.8025-.2925-1.196-.195-2.2295-.429-3.1005-.702-.871-.273-1.4885-.52-1.8525-.741l.9165-4.836c.481.286 1.1115.572 1.8915.858.793.273 1.664.507 2.613.702.949.182 1.9045.273 2.8665.273 1.547 0 2.6975-.2405 3.4515-.7215.754-.481 1.131-1.2545 1.131-2.3205 0-.754-.208-1.3845-.624-1.8915-.416-.52-1.0725-1.027-1.9695-1.521-.884-.494-2.0345-1.079-3.4515-1.755-1.209-.585-2.3465-1.2805-3.4125-2.0865-1.066-.806-1.9305-1.768-2.5935-2.886S5.145 31.967 5.145 30.472c0-1.352.26-2.5155.78-3.4905.533-.988 1.261-1.794 2.184-2.418.923-.637 1.989-1.105 3.198-1.404 1.222-.299 2.5285-.4485 3.9195-.4485 2.002 0 3.6465.1885 4.9335.5655 1.287.377 2.184.728 2.691 1.053l-1.0335 4.641c-.611-.442-1.456-.8385-2.535-1.1895-1.079-.364-2.314-.546-3.705-.546-.923 0-1.729.1105-2.418.3315-.676.221-1.2025.546-1.5795.975-.377.416-.5655.9295-.5655 1.5405 0 .728.1755 1.352.5265 1.872.364.507.936 1.001 1.716 1.482.78.468 1.794 1.0075 3.042 1.6185 1.131.533 2.1775 1.092 3.1395 1.677.962.572 1.807 1.2025 2.535 1.8915.728.689 1.2935 1.4755 1.6965 2.3595.403.884.6045 1.898.6045 3.042 0 1.742-.4095 3.237-1.2285 4.485-.819 1.235-1.9955 2.1775-3.5295 2.8275-1.521.65-3.3345.975-5.4405.975Zm13.161-10.9395c0-2.132.39-4.056 1.17-5.772.78-1.716 1.963-3.0745 3.549-4.0755 1.599-1.014 3.627-1.521 6.084-1.521 1.417 0 2.639.117 3.666.351 1.04.234 1.7355.4745 2.0865.7215l-.741 4.5435c-.481-.299-1.0855-.5395-1.8135-.7215-.715-.182-1.6055-.273-2.6715-.273-.845 0-1.677.195-2.496.585-.806.39-1.482 1.0335-2.028 1.9305-.533.897-.819 2.0995-.858 3.6075-.039 1.625.1755 2.9575.6435 3.9975.481 1.027 1.131 1.7875 1.95 2.2815.832.481 1.755.7215 2.769.7215.988 0 1.9045-.104 2.7495-.312.845-.208 1.5015-.429 1.9695-.663l.8775 3.6465c-.624.624-1.5665 1.0985-2.8275 1.4235-1.248.312-2.5675.468-3.9585.468-2.249 0-4.121-.4745-5.616-1.4235-1.495-.962-2.6195-2.2685-3.3735-3.9195-.754-1.651-1.131-3.5165-1.131-5.5965ZM53.8182 52.312c-1.378 0-2.587-.2795-3.627-.8385-1.04-.559-1.8525-1.339-2.4375-2.34-.572-1.001-.858-2.1645-.858-3.4905s.3575-2.4635 1.0725-3.4125c.728-.949 1.7095-1.69 2.9445-2.223.845-.351 1.768-.624 2.769-.819 1.014-.195 2.0215-.3315 3.0225-.4095 1.014-.078 1.9565-.117 2.8275-.117l.9945 1.2285-.9945 1.911c-.468 0-.9945.0325-1.5795.0975-.585.065-1.1505.1625-1.6965.2925-.533.117-.9815.2535-1.3455.4095-.507.234-.962.546-1.365.936-.39.39-.585.988-.585 1.794 0 1.053.2925 1.833.8775 2.34.585.494 1.339.741 2.262.741.481 0 .9555-.065 1.4235-.195.481-.13.9035-.2795 1.2675-.4485.364-.182.611-.351.741-.507l1.0335 1.2285-.7215 1.677c-.585.52-1.391 1.0075-2.418 1.4625-1.014.455-2.2165.6825-3.6075.6825ZM65.4792 52h-5.6355v-3.237h-.312v-11.7c0-1.105-.2925-1.8265-.8775-2.1645-.585-.351-1.4235-.5265-2.5155-.5265-.819 0-1.677.0715-2.574.2145-.884.143-1.7225.3315-2.5155.5655-.793.234-1.456.4875-1.989.7605l-1.287-3.744c.442-.26 1.131-.5655 2.067-.9165.936-.351 2.0085-.6565 3.2175-.9165 1.209-.273 2.4245-.4095 3.6465-.4095 2.002 0 3.6465.234 4.9335.702 1.3.468 2.262 1.261 2.886 2.379.637 1.118.9555 2.665.9555 4.641V52Zm5.8031 0V20.3125h5.967V52h-5.967Zm21.0655.312c-3.341 0-5.902-.9945-7.683-2.9835-1.781-1.989-2.6715-4.7385-2.6715-8.2485 0-2.106.403-3.991 1.209-5.655.819-1.664 2.002-2.977 3.549-3.939 1.547-.975 3.4385-1.469 5.6745-1.482 1.131-.013 2.21.13 3.237.429 1.027.299 1.9435.7865 2.7495 1.4625.806.663 1.4495 1.547 1.9307 2.652.494 1.092.747 2.431.76 4.017 0 .793-.013 1.5275-.039 2.2035-.026.676-.084 1.2545-.175 1.7355H85.1913l.39-3.2175h9.984c.065-1.053.0065-1.976-.1755-2.769-.169-.806-.507-1.43-1.014-1.872-.507-.455-1.222-.6825-2.145-.6825-.897 0-1.6835.247-2.3595.741-.663.494-1.1765 1.3455-1.5405 2.5545-.351 1.196-.5005 2.847-.4485 4.953.052 1.417.325 2.5545.819 3.4125.507.845 1.1895 1.456 2.0475 1.833.871.364 1.8785.546 3.0225.546.624 0 1.3065-.052 2.0475-.156.741-.104 1.443-.2405 2.106-.4095.663-.182 1.17-.364 1.521-.546l.9942 3.237c-.4807.39-1.1437.754-1.9887 1.092-.832.325-1.781.585-2.847.78-1.053.208-2.1385.312-3.2565.312Zm12.3082-1.6965.663-4.1925c.208.169.631.39 1.268.663s1.397.5265 2.281.7605c.884.221 1.794.3315 2.73.3315 1.183.013 2.054-.143 2.613-.468.559-.338.839-.8385.839-1.5015 0-.455-.189-.8515-.566-1.1895-.364-.338-.864-.65-1.501-.936-.637-.299-1.346-.6045-2.126-.9165-1.404-.559-2.567-1.17-3.49-1.833-.91-.663-1.593-1.417-2.048-2.262-.442-.858-.656-1.859-.643-3.003.013-1.352.403-2.4765 1.17-3.3735.78-.897 1.813-1.5665 3.1-2.0085 1.3-.455 2.737-.6825 4.31-.6825 1.599 0 2.957.1495 4.075.4485 1.131.286 1.905.5525 2.321.7995l-.644 4.2705c-.247-.208-.637-.429-1.17-.663-.533-.234-1.137-.4225-1.813-.5655-.663-.156-1.339-.234-2.028-.234-1.261 0-2.184.156-2.769.468-.572.299-.858.7345-.858 1.3065-.013.741.273 1.2935.858 1.6575.598.351 1.423.7475 2.476 1.1895 1.56.637 2.867 1.274 3.92 1.911 1.066.624 1.865 1.3455 2.398 2.1645.546.806.819 1.794.819 2.964 0 2.158-.773 3.796-2.32 4.914-1.547 1.118-3.634 1.677-6.26 1.677-1.105 0-2.171-.091-3.198-.273-1.014-.169-1.911-.3835-2.691-.6435-.767-.26-1.339-.52-1.716-.78Z" fill="#000"/>
    </g>
    <path id="Merriweather Sans: Bold_3" d="M125.432 52V23.023h16.848v3.51h-12.246v8.814h9.087v3.471h-9.087v9.594h13.611V52h-18.213Zm22.964 0V30.316h4.036l.02 2.301c.533-.364 1.196-.7475 1.989-1.1505.806-.403 1.677-.7475 2.613-1.0335.936-.286 1.872-.442 2.808-.468 1.56-.052 2.814.1885 3.763.7215.949.533 1.638 1.4235 2.067 2.6715.442 1.248.663 2.9315.663 5.0505V52h-4.485V38.6815c0-1.183-.104-2.145-.312-2.886-.195-.754-.565-1.3-1.111-1.638-.546-.338-1.352-.481-2.418-.429-.676.013-1.495.182-2.457.507-.949.312-1.846.7865-2.691 1.4235V52h-4.485Zm17.725-16.3215-.955-2.847c.507-.429 1.176-.858 2.008-1.287.845-.429 1.768-.793 2.769-1.092 1.014-.312 2.035-.4745 3.062-.4875 1.547-.026 2.808.221 3.783.741.975.52 1.69 1.404 2.145 2.652.468 1.235.702 2.912.702 5.031V52h-4.505V38.6815c0-1.183-.097-2.145-.292-2.886-.182-.754-.546-1.3-1.092-1.638-.533-.338-1.339-.481-2.418-.429-.754.013-1.612.2015-2.574.5655-.962.351-1.84.8125-2.633 1.3845Zm19.861 25.9545V30.277h4.095v2.652l.39.468v16.809l-.039.897.039 3.549v6.981h-4.485Zm8.015-9.321c-1.339 0-2.457-.169-3.354-.507-.897-.338-1.476-.611-1.736-.819l1.56-2.886c.416.351.936.6045 1.56.7605.637.143 1.398.2145 2.282.2145 1.118 0 2.125-.312 3.022-.936.897-.637 1.606-1.56 2.126-2.769.533-1.222.812-2.7105.838-4.4655.026-2.6-.429-4.485-1.365-5.655-.923-1.183-2.216-1.7745-3.88-1.7745-1.014 0-1.918.195-2.711.585-.78.377-1.404.7475-1.872 1.1115l-.702-2.223c.299-.312.709-.702 1.229-1.17.52-.468 1.209-.8775 2.067-1.2285.858-.364 1.937-.546 3.237-.546 1.534 0 2.951.377 4.251 1.131 1.313.741 2.366 1.8785 3.159 3.4125.793 1.521 1.189 3.4515 1.189 5.7915 0 2.353-.455 4.433-1.365 6.24-.897 1.794-2.164 3.198-3.802 4.212-1.625 1.014-3.536 1.521-5.733 1.521Zm24.192 0c-1.768 0-3.27-.312-4.505-.936-1.235-.624-2.236-1.4755-3.003-2.5545-.767-1.079-1.326-2.314-1.677-3.705-.338-1.404-.5-2.8795-.487-4.4265.039-2.327.5-4.2835 1.384-5.8695.884-1.586 2.08-2.782 3.588-3.588 1.508-.819 3.205-1.2285 5.09-1.2285 2.366 0 4.257.5395 5.674 1.6185 1.43 1.066 2.457 2.483 3.081 4.251.637 1.755.943 3.6595.917 5.7135-.039 2.327-.501 4.29-1.385 5.889-.871 1.586-2.06 2.7885-3.568 3.6075-1.495.819-3.198 1.2285-5.109 1.2285Zm.117-3.1785c1.781.026 3.12-.6435 4.017-2.0085.91-1.378 1.365-3.2825 1.365-5.7135 0-1.508-.182-2.873-.546-4.095-.364-1.235-.936-2.223-1.716-2.964-.767-.741-1.755-1.118-2.964-1.131-1.768-.039-3.101.598-3.998 1.911-.897 1.313-1.345 3.185-1.345 5.616 0 1.508.182 2.8925.546 4.1535.364 1.261.929 2.275 1.696 3.042.767.767 1.749 1.1635 2.945 1.1895Zm18.959-13.0845-.273-2.964c.195-.403.604-.845 1.228-1.326.624-.494 1.359-.9165 2.204-1.2675.858-.351 1.729-.5265 2.613-.5265.494 0 .916.0195 1.267.0585.364.039.631.1105.8.2145v4.212c-.195-.104-.494-.2145-.897-.3315-.39-.117-1.027-.1755-1.911-.1755-.806 0-1.534.117-2.184.351-.637.221-1.196.494-1.677.819-.481.325-.871.637-1.17.936ZM233.014 52V30.316h3.822l.312 2.769.351 1.638V52h-4.485Zm16.275 0V30.316h4.485V52h-4.485Zm1.989-25.5255c-.754 0-1.417-.2405-1.989-.7215-.559-.481-.838-1.1375-.838-1.9695 0-.572.156-1.0855.468-1.5405.325-.468.734-.8385 1.228-1.1115.494-.286 1.008-.429 1.541-.429.923 0 1.618.26 2.086.78.468.52.702 1.157.702 1.911 0 .897-.325 1.638-.975 2.223-.637.572-1.378.858-2.223.858Zm15.441 25.8375c-1.417 0-2.561-.221-3.432-.663-.871-.442-1.534-1.0725-1.989-1.8915-.455-.832-.767-1.82-.936-2.964-.156-1.144-.234-2.4115-.234-3.8025V30.277h4.485v12.675c0 1.716.13 2.977.39 3.783.273.806.689 1.326 1.248 1.56.572.234 1.313.351 2.223.351.533 0 1.099-.078 1.697-.234.611-.169 1.183-.364 1.716-.585.533-.234.955-.455 1.267-.663V30.277h4.485v22.035h-2.067c-.598 0-1.072-.091-1.423-.273-.351-.169-.527-.611-.527-1.326v-1.521l.078.858c-.585.39-1.274.7605-2.067 1.1115-.78.338-1.599.6175-2.457.8385-.858.208-1.677.312-2.457.312ZM284.363 52V30.316h4.036l.02 2.301c.533-.364 1.196-.7475 1.989-1.1505.806-.403 1.677-.7475 2.613-1.0335.936-.286 1.872-.442 2.808-.468 1.56-.052 2.814.1885 3.763.7215.949.533 1.638 1.4235 2.067 2.6715.442 1.248.663 2.9315.663 5.0505V52h-4.485V38.6815c0-1.183-.104-2.145-.312-2.886-.195-.754-.565-1.3-1.111-1.638-.546-.338-1.352-.481-2.418-.429-.676.013-1.495.182-2.457.507-.949.312-1.846.7865-2.691 1.4235V52h-4.485Zm17.725-16.3215-.955-2.847c.507-.429 1.176-.858 2.008-1.287.845-.429 1.768-.793 2.769-1.092 1.014-.312 2.035-.4745 3.062-.4875 1.547-.026 2.808.221 3.783.741.975.52 1.69 1.404 2.145 2.652.468 1.235.702 2.912.702 5.031V52h-4.505V38.6815c0-1.183-.097-2.145-.292-2.886-.182-.754-.546-1.3-1.092-1.638-.533-.338-1.339-.481-2.418-.429-.754.013-1.612.2015-2.574.5655-.962.351-1.84.8125-2.633 1.3845Z" fill="#ABCBC9"/>
    <g id="LogoBlack">
      <g id="Wings" stroke-width="3">
        <path id="Ellipse 1" d="M395.827 22c0 18.2254-17.198 33-38.414 33C336.198 55 319 40.2254 319 22" stroke="#589893"/>
        <path id="Ellipse 1_2" d="M319.175 60.9986c.159-18.2246 17.485-32.8363 38.699-32.6362 21.214.2002 38.283 15.1364 38.125 33.3611" stroke="#589893"/>
        <path id="Ellipse 1_3" d="M389.105 82c-17.503 0-31.692-17.9086-31.692-40s14.189-40 31.692-40" stroke="#82B2AE"/>
        <path id="Ellipse 1_4" d="M325.845 2c17.502 0 31.691 17.9086 31.691 40s-14.189 40-31.691 40" stroke="#ABCBC9"/>
      </g>
      <g id="Body" fill="#000">
        <path id="Ellipse 2" d="M338.207 22.128c.016 2.6264.529 5.2238 1.509 7.6438.98 2.42 2.409 4.6153 4.203 6.4606 1.795 1.8452 3.922 3.3043 6.258 4.2938 2.337.9895 4.837 1.4902 7.359 1.4734 2.523-.0168 5.017-.5508 7.341-1.5714s4.432-2.5079 6.204-4.3769c1.772-1.869 3.174-4.0832 4.124-6.5161.95-2.4329 1.431-5.0368 1.415-7.6632l-13.685.0912c.005.7551-.133 1.5037-.407 2.2032-.273.6994-.676 1.336-1.185 1.8734-.51.5373-1.116.9649-1.784 1.2583-.668.2934-1.385.447-2.11.4518-.725.0048-1.444-.1391-2.116-.4236-.672-.2845-1.283-.704-1.799-1.2345s-.927-1.1616-1.209-1.8574c-.281-.6958-.429-1.4425-.433-2.1976l-13.685.0912Z"/>
        <path id="Ellipse 2_2" d="M376.794 61.4142c.006-2.6264-.484-5.2285-1.443-7.6577-.959-2.4291-2.368-4.6378-4.147-6.4999-1.778-1.8621-3.892-3.3412-6.22-4.3527-2.327-1.0116-4.824-1.5358-7.346-1.5428-2.522-.007-5.021.5034-7.354 1.5021-2.333.9986-4.454 2.4659-6.242 4.3181-1.788 1.8523-3.209 4.0531-4.18 6.477-.972 2.4238-1.475 5.0231-1.482 7.6495l13.685.0379c.002-.7551.147-1.5024.426-2.1992.279-.6969.688-1.3296 1.202-1.8621.514-.5325 1.124-.9544 1.794-1.2415.671-.2871 1.39-.4339 2.115-.4318.725.002 1.442.1527 2.112.4435.669.2908 1.277.716 1.788 1.2514.511.5354.916 1.1704 1.192 1.8687.276.6984.417 1.4465.415 2.2016l13.685.0379Z"/>
        <path id="Ellipse 2_3" d="M388.982 22.0004c-2.523.0168-5.017.5508-7.341 1.5714s-4.432 2.5079-6.204 4.3769c-1.772 1.869-3.174 4.0832-4.124 6.5161-.95 2.4329-1.431 5.0368-1.415 7.6632.016 2.6264.529 5.2238 1.509 7.6438.98 2.42 2.409 4.6153 4.204 6.4606 1.794 1.8452 3.921 3.3043 6.257 4.2938 2.337.9896 4.837 1.4902 7.359 1.4734l-.087-14.2497c-.725.0048-1.444-.1391-2.116-.4236-.672-.2845-1.283-.704-1.799-1.2345s-.927-1.1616-1.208-1.8574c-.282-.6958-.43-1.4425-.434-2.1976-.005-.7551.133-1.5037.407-2.2032.273-.6994.676-1.336 1.185-1.8733.51-.5374 1.116-.965 1.784-1.2584.668-.2934 1.385-.4469 2.11-.4518l-.087-14.2497Z"/>
        <path id="Ellipse 2_4" d="M325.968 61.9996c2.522-.0168 5.016-.5508 7.34-1.5714s4.433-2.5079 6.205-4.3769c1.772-1.869 3.173-4.0832 4.123-6.5161.951-2.4329 1.431-5.0369 1.415-7.6632-.016-2.6264-.529-5.2238-1.509-7.6438-.98-2.42-2.408-4.6153-4.203-6.4606-1.795-1.8452-3.921-3.3043-6.258-4.2938-2.336-.9896-4.837-1.4902-7.359-1.4734l.088 14.2497c.725-.0048 1.444.1391 2.115.4236.672.2845 1.283.704 1.799 1.2345s.927 1.1616 1.209 1.8574c.282.6957.429 1.4425.434 2.1976.004.7551-.134 1.5037-.407 2.2032-.273.6994-.676 1.336-1.186 1.8733-.509.5374-1.115.965-1.783 1.2584-.669.2934-1.386.4469-2.111.4518l.088 14.2497Z"/>
      </g>
    </g>
  </g>
  <defs>
    <filter id="filter0_d_34_379" x="0" y=".5" width="402.5" height="91" filterUnits="userSpaceOnUse" color-interpolation-filters="sRGB">
      <feFlood flood-opacity="0" result="BackgroundImageFix"/>
      <feColorMatrix in="SourceAlpha" values="0 0 0 0 0 0 0 0 0 0 0 0 0 0 0 0 0 0 127 0" result="hardAlpha"/>
      <feOffset dx="1" dy="4"/>
      <feGaussianBlur stdDeviation="2"/>
      <feComposite in2="hardAlpha" operator="out"/>
      <feColorMatrix values="0 0 0 0 0 0 0 0 0 0 0 0 0 0 0 0 0 0 0.25 0"/>
      <feBlend in2="BackgroundImageFix" result="effect1_dropShadow_34_379"/>
      <feBlend in="SourceGraphic" in2="effect1_dropShadow_34_379" result="shape"/>
    </filter>
  </defs>
</svg>
